<svg width="1934" height="1164" viewBox="0 0 1934 1164" fill="none" xmlns="http://www.w3.org/2000/svg">
<g clip-path="url(#clip0_23_445)">
<rect x="912.482" y="1" width="108.517" height="687.273" rx="20" fill="#5768FC"/>
<rect x="1165.57" y="1" width="108.517" height="470.239" rx="20" fill="#4657F2"/>
<rect x="659.141" y="1" width="108.517" height="470.239" rx="20" fill="#4657F2"/>
<rect x="1418.71" y="1" width="108.517" height="253.206" rx="20" fill="#2D3FE1"/>
<rect x="405.992" y="1" width="108.517" height="253.206" rx="20" fill="#2D3FE1"/>
<path d="M1730.5 961.978L1674.19 1158.25H1613.98L1528.74 880.652H1592.87L1644.48 1076.93H1645.26L1700.78 880.652H1762.56L1818.08 1076.93H1818.86L1870.47 880.652H1933.03L1847.79 1158.25H1787.58L1731.28 961.978H1730.5Z" fill="black"/>
<path d="M1486.71 1105.86V1158.25H1286.91V880.652H1486.71V933.044H1343.99V991.302H1480.84V1043.69H1343.99V1105.86H1486.71Z" fill="black"/>
<path d="M1208.76 880.652V1158.25H1151.67V880.652H1208.76Z" fill="black"/>
<path d="M1038.45 880.652H1101.01L995.831 1158.25H937.182L832.006 880.652H896.128L966.898 1082.4H967.68L1038.45 880.652Z" fill="black"/>
<path d="M646.026 1000.69H707.802C720.314 1000.69 729.698 997.688 735.954 991.693C742.21 985.698 745.338 977.487 745.338 967.061C745.338 956.634 742.21 948.423 735.954 942.428C729.698 936.172 720.314 933.044 707.802 933.044H646.026V1000.69ZM646.026 1053.08V1158.25H588.941V880.652H707.802C739.603 880.652 763.323 888.602 778.963 904.502C794.602 920.402 802.422 941.255 802.422 967.061C802.422 992.605 794.342 1013.33 778.181 1029.23C762.28 1045.13 738.821 1053.08 707.802 1053.08H646.026Z" fill="black"/>
<path d="M482.965 915.839C510.074 943.208 523.628 977.746 523.628 1019.45C523.628 1061.16 510.074 1095.69 482.965 1123.06C455.856 1150.43 421.319 1164.12 379.353 1164.12C337.386 1164.12 302.849 1150.43 275.74 1123.06C248.631 1095.69 235.077 1061.16 235.077 1019.45C235.077 977.746 248.631 943.208 275.74 915.839C302.849 888.47 337.386 874.785 379.353 874.785C421.319 874.785 455.856 888.47 482.965 915.839ZM439.956 1085.14C455.596 1068.46 463.416 1046.56 463.416 1019.45C463.416 992.343 455.596 970.578 439.956 954.156C424.317 937.474 404.115 929.133 379.353 929.133C354.59 929.133 334.389 937.474 318.749 954.156C303.109 970.578 295.29 992.343 295.29 1019.45C295.29 1046.56 303.109 1068.46 318.749 1085.14C334.389 1101.56 354.59 1109.77 379.353 1109.77C404.115 1109.77 424.317 1101.56 439.956 1085.14Z" fill="black"/>
<path d="M210.118 880.652V934.217H133.875V1158.25H76.79V934.217H0.546875V880.652H210.118Z" fill="black"/>
</g>
<defs>
<clipPath id="clip0_23_445">
<rect width="1934" height="1164" fill="white"/>
</clipPath>
</defs>
</svg>
