<svg width="1436" height="200" viewBox="0 0 1436 200" fill="none" xmlns="http://www.w3.org/2000/svg">
<g clip-path="url(#clip0_23_407)">
<path d="M147.382 5.26315C147.382 2.35639 149.739 0 152.645 0H173.698C176.605 0 178.961 2.3564 178.961 5.26316V194.737C178.961 197.644 176.605 200 173.698 200H152.645C149.739 200 147.382 197.644 147.382 194.737V5.26315Z" fill="#5768FC"/>
<path d="M221.041 5.26315C221.041 2.35639 223.397 0 226.304 0H247.356C250.263 0 252.619 2.3564 252.619 5.26316V131.579C252.619 134.486 250.263 136.842 247.356 136.842H226.304C223.397 136.842 221.041 134.486 221.041 131.579V5.26315Z" fill="#4657F2"/>
<path d="M73.6582 5.26315C73.6582 2.35639 76.0146 0 78.9214 0H99.974C102.881 0 105.237 2.3564 105.237 5.26316V131.579C105.237 134.486 102.881 136.842 99.974 136.842H78.9214C76.0146 136.842 73.6582 134.486 73.6582 131.579V5.26315Z" fill="#4657F2"/>
<path d="M294.699 5.26315C294.699 2.35639 297.055 0 299.962 0H321.015C323.921 0 326.278 2.3564 326.278 5.26316V68.421C326.278 71.3278 323.921 73.6842 321.015 73.6842H299.962C297.055 73.6842 294.699 71.3278 294.699 68.421V5.26315Z" fill="#2D3FE1"/>
<path d="M0 5.26315C0 2.35639 2.3564 0 5.26316 0H26.3158C29.2226 0 31.5789 2.3564 31.5789 5.26316V68.421C31.5789 71.3278 29.2226 73.6842 26.3158 73.6842H5.26316C2.3564 73.6842 0 71.3278 0 68.421V5.26315Z" fill="#2D3FE1"/>
<path d="M1435.96 36.56V153H1412.02V36.56H1435.96Z" fill="black"/>
<path d="M1304.17 153H1279.08L1322.87 36.56H1348.12L1391.91 153H1366.16L1359.11 132.992H1311.22L1304.17 153ZM1335.33 66.08H1335L1318.93 111.508H1351.4L1335.33 66.08Z" fill="black"/>
<path d="M1152.43 70.672L1128.82 153H1103.56L1067.81 36.56H1094.7L1116.35 118.888H1116.68L1139.97 36.56H1165.88L1189.17 118.888H1189.5L1211.14 36.56H1237.38L1201.63 153H1176.38L1152.76 70.672H1152.43Z" fill="black"/>
<path d="M1050.14 131.024V153H966.335V36.56H1050.14V58.536H990.279V82.972H1047.68V104.948H990.279V131.024H1050.14Z" fill="black"/>
<path d="M933.551 36.56V153H909.607V36.56H933.551Z" fill="black"/>
<path d="M862.164 36.56H888.404L844.288 153H819.688L775.572 36.56H802.468L832.152 121.184H832.48L862.164 36.56Z" fill="black"/>
<path d="M697.578 86.908H723.49C728.738 86.908 732.674 85.6507 735.298 83.136C737.922 80.6213 739.234 77.1773 739.234 72.804C739.234 68.4307 737.922 64.9867 735.298 62.472C732.674 59.848 728.738 58.536 723.49 58.536H697.578V86.908ZM697.578 108.884V153H673.634V36.56H723.49C736.828 36.56 746.778 39.8947 753.338 46.564C759.898 53.2333 763.178 61.98 763.178 72.804C763.178 83.5187 759.788 92.2107 753.01 98.88C746.34 105.549 736.5 108.884 723.49 108.884H697.578Z" fill="black"/>
<path d="M629.146 51.32C640.517 62.8 646.202 77.2866 646.202 94.78C646.202 112.273 640.517 126.76 629.146 138.24C617.775 149.72 603.289 155.46 585.686 155.46C568.083 155.46 553.597 149.72 542.226 138.24C530.855 126.76 525.17 112.273 525.17 94.78C525.17 77.2866 530.855 62.8 542.226 51.32C553.597 39.84 568.083 34.1 585.686 34.1C603.289 34.1 617.775 39.84 629.146 51.32ZM611.106 122.332C617.666 115.335 620.946 106.151 620.946 94.78C620.946 83.4093 617.666 74.28 611.106 67.392C604.546 60.3946 596.073 56.896 585.686 56.896C575.299 56.896 566.826 60.3946 560.266 67.392C553.706 74.28 550.426 83.4093 550.426 94.78C550.426 106.151 553.706 115.335 560.266 122.332C566.826 129.22 575.299 132.664 585.686 132.664C596.073 132.664 604.546 129.22 611.106 122.332Z" fill="black"/>
<path d="M514.724 36.56V59.028H482.744V153H458.8V59.028H426.82V36.56H514.724Z" fill="black"/>
<circle cx="1247" cy="140" r="13" fill="black"/>
</g>
<defs>
<clipPath id="clip0_23_407">
<rect width="1436" height="200" fill="white"/>
</clipPath>
</defs>
</svg>
